<?xml version="1.0" encoding="UTF-8"?>
<svg xmlns="http://www.w3.org/2000/svg" viewBox="0 0 1024 1024">
  <path fill="#231815" stroke="#231815" stroke-miterlimit="10" d="M833.25,866.08c0,4.97-4.04,9.01-9.01,9.01h-353.97c-4.98,0-9.01-4.04-9.01-9.01s4.03-9.01,9.01-9.01h88.1c21.54,0,39-17.46,39-39,0-4.85-.88-9.49-2.5-13.77l-.2-.53L382.16,233.59c-9.54-38.29-44.15-66.66-85.39-66.66-4.98,0-9.01-4.03-9.01-9.01s4.03-9.01,9.01-9.01h265.86c4.97,0,9.01,4.03,9.01,9.01s-4.04,9.01-9.01,9.01c-21.54,0-39,17.46-39,39,0,4.85.88,9.49,2.5,13.77l.2.53,212.67,570.79c9.76,37.98,44.21,66.04,85.24,66.04,4.97,0,9.01,4.03,9.01,9.01Z"/>
  <path fill="#231815" stroke="#231815" stroke-miterlimit="10" d="M415.76,747.08c0,10.71-1.31,21.11-3.8,31.04-13.88,55.69-64.22,96.96-124.2,96.96-70.69,0-128-57.31-128-128s57.31-128,128-128c59.99,0,110.33,41.27,124.2,96.96,2.49,9.93,3.8,20.33,3.8,31.04Z"/>
</svg>
